<svg width="285" height="153" viewBox="0 0 285 153" fill="none" xmlns="http://www.w3.org/2000/svg">
<g id="element-light-lime-curve-arrow.svg fill" clip-path="url(#clip0_1_1112)">
<g id="element-light-lime-curve-arrow.svg" clip-path="url(#clip1_1_1112)">
<path id="Vector" d="M282.872 2.16455C282.872 2.16455 283.098 55.3147 256.778 80.008C230.458 104.701 153.728 116.968 131.097 78.0779C125.132 67.826 122.405 52.3123 130.449 44.9482C139.522 36.6412 155.022 42.6774 161.443 53.17C170.423 67.8449 166.949 93.348 146.069 121.25C104.403 176.931 3.00742 131.115 3.00742 131.115M3.00742 131.115C3.00742 131.115 9.97671 135.92 13.4116 139.876C16.2219 143.113 15.1596 150.527 15.1596 150.527M3.00742 131.115C7.02793 131.01 11.7276 132.721 16.5799 130.578C19.9924 129.07 20.7829 127.869 24.0238 124.591" stroke="#BFF747" stroke-width="3" stroke-linecap="round"/>
</g>
</g>
<defs>
<clipPath id="clip0_1_1112">
<rect width="284" height="153" fill="white" transform="translate(0.693848 -0.00976562)"/>
</clipPath>
<clipPath id="clip1_1_1112">
<rect width="284" height="153" fill="white" transform="translate(0.693848 -0.00976562)"/>
</clipPath>
</defs>
</svg>
