<svg width="51" height="51" viewBox="0 0 51 51" fill="none" xmlns="http://www.w3.org/2000/svg">
<rect x="0.39386" y="0.160156" width="50" height="50" rx="25" fill="#161C28"/>
<g clip-path="url(#clip0_1_1117)">
<g clip-path="url(#clip1_1_1117)">
<path d="M13.3939 14.6602C13.3939 13.8317 14.0654 13.1602 14.8939 13.1602H18.1232C18.8564 13.1602 19.4822 13.6903 19.6028 14.4136L20.7118 21.0674C20.82 21.7169 20.492 22.3611 19.903 22.6556L17.5807 23.8167C19.2552 27.9776 22.5764 31.2988 26.7373 32.9733L27.8984 30.651C28.1929 30.0621 28.8371 29.734 29.4867 29.8423L36.1405 30.9512C36.8638 31.0718 37.3939 31.6976 37.3939 32.4308V35.6601C37.3939 36.4886 36.7223 37.1601 35.8939 37.1601H32.8939C22.1243 37.1601 13.3939 28.4297 13.3939 17.6602V14.6602Z" fill="#FDFDE1"/>
</g>
</g>
<defs>
<clipPath id="clip0_1_1117">
<rect width="30" height="30" fill="white" transform="translate(10.3939 10.1602)"/>
</clipPath>
<clipPath id="clip1_1_1117">
<rect width="30" height="30" fill="white" transform="translate(10.3939 10.1602)"/>
</clipPath>
</defs>
</svg>
