<svg width="75" height="70" viewBox="0 0 75 70" fill="none" xmlns="http://www.w3.org/2000/svg">
<g clip-path="url(#clip0_1_1144)">
<g clip-path="url(#clip1_1_1144)">
<path d="M12.9331 62.9711L28.0673 43.8548C28.8445 43.0494 29.3191 41.9964 29.4081 40.8764C29.4196 40.5234 29.3427 40.1728 29.186 39.8569C29.0294 39.541 28.7984 39.2695 28.5113 39.067C27.8099 38.5799 26.9697 38.3383 26.1189 38.3795C25.7426 38.3913 25.3672 38.4234 24.9943 38.4759L0.693848 41.7804V28.2004L24.9943 31.5409C25.3671 31.5941 25.7425 31.6262 26.1189 31.6373C26.973 31.6761 27.8148 31.4261 28.5113 30.9262C28.797 30.7196 29.0267 30.4457 29.1831 30.1283C29.3396 29.8108 29.4173 29.4594 29.4081 29.1051C29.333 28.0018 28.8767 26.9599 28.1169 26.1621L12.8864 6.76893L25.1608 -0.00927734L34.3009 22.6648C34.5749 23.5114 35.0586 24.2742 35.703 24.8834C35.9334 25.1302 36.2093 25.3269 36.518 25.4613C36.8266 25.5957 37.1603 25.6652 37.4965 25.6652C37.8327 25.6652 38.1664 25.5957 38.4751 25.4613C38.7837 25.3269 39.0596 25.1302 39.2901 24.8834C39.9246 24.2683 40.4035 23.5071 40.6805 22.6648L49.7476 -0.00927734L62.241 6.76893L46.8644 26.1621C46.0855 26.9857 45.6115 28.0546 45.5237 29.189C45.5174 29.5318 45.5936 29.8717 45.7457 30.1783C45.8978 30.485 46.1212 30.75 46.3971 30.9505C47.1225 31.444 47.9886 31.6847 48.8625 31.6373C49.2635 31.6465 49.6656 31.6142 50.0601 31.5409L74.2292 28.2004V41.7804L50.0601 38.4759C49.6299 38.3984 49.1912 38.3662 48.7544 38.3795C47.9111 38.3291 47.0742 38.5486 46.362 39.0067C46.0905 39.2022 45.8695 39.4615 45.7194 39.7619C45.5693 40.0624 45.4944 40.395 45.5003 40.7314C45.604 41.8926 46.0789 42.9883 46.8528 43.8548L62.168 62.9711L49.7242 69.9907L40.6075 47.3403C40.3234 46.5013 39.8484 45.7418 39.22 45.1216C38.9895 44.8748 38.7108 44.6782 38.4021 44.5438C38.0934 44.4093 37.7597 44.3399 37.4235 44.3399C37.0873 44.3399 36.7565 44.4093 36.4479 44.5438C36.1392 44.6782 35.8604 44.8748 35.63 45.1216C34.9971 45.7474 34.5058 46.5042 34.1928 47.3403L25.0527 69.9907L12.9331 62.9711Z" fill="#BFF747"/>
</g>
</g>
<defs>
<clipPath id="clip0_1_1144">
<rect width="74" height="70" fill="white" transform="translate(0.693848 -0.00976562)"/>
</clipPath>
<clipPath id="clip1_1_1144">
<rect width="74" height="70" fill="white" transform="translate(0.693848 -0.00976562)"/>
</clipPath>
</defs>
</svg>
