<svg width="20" height="20" viewBox="0 0 20 20" fill="none" xmlns="http://www.w3.org/2000/svg">
<path d="M9.45132 1.20087C9.73545 0.248859 11.0836 0.248857 11.3678 1.20087L12.8895 6.29949C13.0159 6.72316 13.4056 7.0135 13.8477 7.0135H18.9412C19.8893 7.0135 20.3052 8.20968 19.5616 8.79781L15.2988 12.1696C14.9777 12.4235 14.8438 12.8476 14.9609 13.2399L16.5541 18.5779C16.8336 19.5144 15.742 20.2545 14.9755 19.6483L11.0299 16.5275C10.6663 16.2399 10.1528 16.2399 9.78918 16.5275L5.84363 19.6483C5.07712 20.2545 3.98553 19.5144 4.26503 18.5779L5.85821 13.2399C5.97529 12.8476 5.84143 12.4235 5.52034 12.1696L1.2575 8.79781C0.513926 8.20967 0.92981 7.0135 1.87786 7.0135H6.97137C7.4135 7.0135 7.80316 6.72316 7.9296 6.29949L9.45132 1.20087Z" fill="#FBD95E"/>
</svg>
